<svg xmlns="http://www.w3.org/2000/svg" width="104" height="41.609" viewBox="0 0 104 41.609">
  <g id="그룹_2" data-name="그룹 2" transform="translate(-5 -5)">
    <g id="그룹_78" data-name="그룹 78" transform="translate(5 5)">
      <path id="패스_162" data-name="패스 162" d="M5,27.464c0-.446.089-1.545,1.07-1.545,4.279,0,5.408-1.4,5.408-1.872C11.478,22.472,5,19.8,5,9.308c0-1.694-.03-1.783,1.426-1.783H9.457c.475,0,1.307-.119,1.307.683,0,.535-.327,1.694-.327,2.823,0,4.4,3.655,8.558,4.4,8.558,1.486,0,2.5-4.517,2.5-7.429a40.666,40.666,0,0,0-.416-4.071c0-.683.921-.565,1.337-.565h3.328c.713.119.594,1.307.594,2.942C22.5,21.491,14.093,32.188,5.891,32.188c-.862,0-.891-.565-.891-1.426v-3.3Z" transform="translate(-5 -0.037)" fill="#474f57"/>
      <path id="패스_163" data-name="패스 163" d="M11.02,20.088c0-6.121,2.942-12.688,9.6-12.688s9.6,6.567,9.6,12.688c0,8.944-5.2,12.777-9.6,12.777S11.02,29,11.02,20.088Zm14.441-.951c0-3-1.07-7.25-4.843-7.25s-4.843,4.249-4.843,7.25c0,3.031.981,7.369,4.843,7.369S25.461,22.168,25.461,19.137Z" transform="translate(6.868 -0.269)" fill="#474f57"/>
      <path id="패스_164" data-name="패스 164" d="M26.471,36.726c-1.872,0-2.021.8-2.021-12.569,0-12.985.624-11.737,1.872-11.737h2.11c1.6,0,1.634.119,1.634.565,0,1.4-.446,2.823-.446,6.953a79.433,79.433,0,0,0,1.486,15.808c0,1.218-1.159.981-2.021.981Zm-1.6-28.971A2.735,2.735,0,0,1,27.808,5.14a2.735,2.735,0,0,1,2.942,2.615c0,1.634-1.426,2.5-2.942,2.5S24.866,9.389,24.866,7.755Z" transform="translate(33.344 -4.724)" fill="#474f57"/>
      <path id="패스_165" data-name="패스 165" d="M32.485,5c.446,0,1.337,0,1.337.832a38.521,38.521,0,0,0-1.1,6.27c0,.594.119,1.189.8,1.189a4.5,4.5,0,0,0,1.515-.416,7.8,7.8,0,0,1,2.139-.446c3.15,0,7.547,2.853,7.547,10.757a15.552,15.552,0,0,1-3.774,10.875A7.678,7.678,0,0,1,35.129,37H28.592c-1.307,0-1.159-12.569-1.159-13.431C27.433,21.818,27.285,5,28.949,5Zm7.25,18.661c0-6.151-2.615-7.666-4.16-7.666-2.615,0-3.15,1.307-3.15,6.8,0,8.112,1.872,7.963,2.853,7.963C38.9,30.733,39.735,26.424,39.735,23.661Z" transform="translate(39.216 -5)" fill="#474f57"/>
      <path id="패스_166" data-name="패스 166" d="M33.54,20.088c0-6.121,2.942-12.688,9.6-12.688s9.6,6.567,9.6,12.688c0,8.944-5.2,12.777-9.6,12.777S33.54,29,33.54,20.088Zm14.441-.951c0-3-1.07-7.25-4.843-7.25s-4.843,4.249-4.843,7.25c0,3.031.981,7.369,4.843,7.369S47.981,22.168,47.981,19.137Z" transform="translate(51.265 -0.269)" fill="#474f57"/>
    </g>
    <g id="그룹_80" data-name="그룹 80" transform="translate(43.034 12.131)">
      <path id="패스_167" data-name="패스 167" d="M17.831,18.909a1.171,1.171,0,0,1,.654-1.218,6.3,6.3,0,0,1,3.358-1.07,14.98,14.98,0,0,1,5.289,1.189,10.44,10.44,0,0,0,2.437.624,1.243,1.243,0,0,0,1.159-.862,1.052,1.052,0,0,0,.059-.357s-.03-.238.327-.357a4.173,4.173,0,0,1,3.061.446s1.6.713,1.515,1.931a4.285,4.285,0,0,1-3.12,4.1,6.63,6.63,0,0,1-4.606-.089s-1.515-.535-2.5-.921c0,0-2.971-1.189-4.041.446a6.616,6.616,0,0,1-.683.8s-.475.446-1.1-.327A9.876,9.876,0,0,1,17.831,18.909Z" transform="translate(-17.771 10.775)" fill="#00bdd4"/>
      <g id="그룹_79" data-name="그룹 79">
        <path id="패스_168" data-name="패스 168" d="M26.358,7.4c4.843,0,7.785,2.853,7.785,7.547,0,3.893-2.615,5.467-2.615,6.329,0,1.01,4.13,1.4,4.13,5.616,0,2.942-2.347,4.606-5.2,4.606a11.152,11.152,0,0,1-3.774-.891,9.578,9.578,0,0,0-3.387-.891c-2.021,0-2.05,1.813-2.971,1.813-1.1,0-2.526-4.041-2.526-4.962,0-1.307,3-2.08,3.833-2.08,3.387,0,6.418,1.813,7.934,1.813a1.224,1.224,0,0,0,1.218-1.218c0-1.04-2.437-2.258-4.427-2.258a7.38,7.38,0,0,1-7.785-7.7c0-3.893,1.842-5.23,2.407-5.765a8.5,8.5,0,0,1,3.12-1.6c.119-.03.357-.059.713-.149A4.743,4.743,0,0,1,26.358,7.4m0,10.757A3.409,3.409,0,0,0,29.864,14.5a3.509,3.509,0,1,0-7.013,0A3.426,3.426,0,0,0,26.358,18.157Z" transform="translate(-17.8 -7.4)" fill="#00bdd4"/>
      </g>
    </g>
  </g>
</svg>
